# xmcd
#
# Track frame offsets:
# 150
# 20925
# 34920
# 50592
# 67174
# 84166
# 97691
# 118336
# 134423
# 159110
# 172868
# 189615
# 224773
# 230573
# 243157
# 262270
# 278050
# 289378
# 304323
#
# Disc length: 4334 seconds
#
# Revision: 0
# Processed by: cddbd v1.4PL0 Copyright (c) Steve Scherf et al.
# Submitted via: Audion 3.0.2 (http://www.panic.com/audion/)
#
DISCID=2010ec13
DTITLE=penglipur lara - pl iv
DYEAR=1900
DGENRE=
TTITLE0=16 days
TTITLE1=listen to the sirens
TTITLE2=debauchery
TTITLE3=man should surrender
TTITLE4=zerox
TTITLE5=young savage
TTITLE6=homosapien
TTITLE7=up all night
TTITLE8=tvc15
TTITLE9=sound and vision
TTITLE10=bill bailey
TTITLE11=sex bomb
TTITLE12=landshark
TTITLE13=oh bondage up yours
TTITLE14=metal postcard
TTITLE15=i could be happy
TTITLE16=fast cars
TTITLE17=telephone operator
TTITLE18=to hell with poverty
EXTD=
EXTT0=
EXTT1=
EXTT2=
EXTT3=
EXTT4=
EXTT5=
EXTT6=
EXTT7=
EXTT8=
EXTT9=
EXTT10=
EXTT11=
EXTT12=
EXTT13=
EXTT14=
EXTT15=
EXTT16=
EXTT17=
EXTT18=
PLAYORDER=
